<svg width="49" height="49" viewBox="0 0 49 49" fill="none" xmlns="http://www.w3.org/2000/svg">
<path d="M48.6404 24.8357C48.6399 20.2493 47.3252 15.7591 44.852 11.8967C42.3788 8.03423 38.8507 4.96132 34.6853 3.04174C30.5199 1.12215 25.8918 0.436279 21.3487 1.06532C16.8056 1.69436 12.5379 3.61197 9.05086 6.59113C5.56379 9.57029 3.00336 13.4862 1.6727 17.8754C0.342038 22.2645 0.296875 26.943 1.54256 31.357C2.78824 35.771 5.2726 39.7356 8.70151 42.7816C12.1304 45.8275 16.3603 47.8271 20.8904 48.5437V31.7737H14.7964V24.8357H20.8904V19.5487C20.8904 13.5337 24.4734 10.2107 29.9554 10.2107C31.7551 10.2358 33.5505 10.3926 35.3274 10.6797V16.5857H32.3014C29.3204 16.5857 28.3904 18.4357 28.3904 20.3357V24.8357H35.0464L33.9824 31.7737H28.3904V48.5447C34.0355 47.6505 39.1764 44.7714 42.8885 40.4253C46.6005 36.0792 48.6401 30.5513 48.6404 24.8357Z" fill="#1877F2"/>
<path d="M33.9826 31.7738L35.0466 24.8358H28.3906V20.3358C28.3906 18.4358 29.3206 16.5878 32.3016 16.5878H35.3276V10.6818C33.5508 10.3946 31.7553 10.2379 29.9556 10.2128C24.4736 10.2128 20.8906 13.5358 20.8906 19.5498V24.8378H14.7966V31.7758H20.8906V48.5468C23.3755 48.9356 25.9058 48.9356 28.3906 48.5468V31.7738H33.9826Z" fill="white"/>
</svg>
