<svg width="49" height="47" viewBox="0 0 49 47" fill="none" xmlns="http://www.w3.org/2000/svg">
<path d="M24.2717 0.906919C17.9736 0.843189 11.9078 3.28267 7.40752 7.68922C2.90721 12.0958 0.340591 18.1088 0.271729 24.4069C0.294575 29.3848 1.89486 34.2273 4.84263 38.2385C7.7904 42.2498 11.9339 45.2234 16.6777 46.7319C17.8777 46.9479 18.3187 46.2259 18.3187 45.5979V41.6039C11.6437 43.0199 10.2277 38.4629 10.2277 38.4629C9.7847 37.0296 8.83905 35.8045 7.56473 35.0129C5.38073 33.5689 7.74273 33.5969 7.74273 33.5969C8.49673 33.6985 9.21803 33.9691 9.85282 34.3885C10.4876 34.8079 11.0195 35.3652 11.4087 36.0189C12.0845 37.195 13.196 38.0579 14.5028 38.4211C15.8097 38.7843 17.207 38.6187 18.3927 37.9599C18.5167 36.7656 19.0582 35.6533 19.9217 34.8189C14.5967 34.2279 9.00973 32.2189 9.00973 23.2129C8.96322 20.8637 9.83047 18.5882 11.4287 16.8659C10.6948 14.8471 10.7824 12.6208 11.6727 10.6659C11.6727 10.6659 13.6977 10.0279 18.2167 13.0659C22.1478 12.0159 26.2856 12.0159 30.2167 13.0659C34.8007 10.0279 36.7607 10.6659 36.7607 10.6659C37.6413 12.6232 37.7287 14.8455 37.0047 16.8659C38.6446 18.5562 39.5595 20.8199 39.5547 23.1749C39.5547 32.2029 33.9297 34.1909 28.6417 34.7809C29.2198 35.3415 29.6667 36.023 29.9504 36.7766C30.2342 37.5302 30.3476 38.3373 30.2827 39.1399V45.5789C30.2827 46.3379 30.7237 46.9569 31.9237 46.7129C36.6497 45.1898 40.7744 42.2138 43.7099 38.2091C46.6453 34.2043 48.2418 29.3752 48.2717 24.4099C48.2029 18.1118 45.6362 12.0988 41.1359 7.69222C36.6356 3.28567 30.5699 0.846189 24.2717 0.909919" fill="#231F20"/>
</svg>
