<svg width="47" height="49" viewBox="0 0 47 49" fill="none" xmlns="http://www.w3.org/2000/svg">
<path d="M10.537 20.3665C11.4726 17.5345 13.279 15.0705 15.6984 13.3263C18.1178 11.5822 21.0265 10.647 24.009 10.6545C27.2329 10.652 30.3577 11.7685 32.85 13.8135L39.815 6.83847C37.0583 4.40482 33.7787 2.63799 30.2299 1.67467C26.6811 0.711343 22.9583 0.577351 19.3494 1.28306C15.7405 1.98876 12.3424 3.51525 9.41789 5.74442C6.49338 7.97358 4.1209 10.8457 2.48401 14.1385L10.537 20.3665Z" fill="#EA4335"/>
<path d="M32.081 36.8675C29.6503 38.3473 26.8448 39.0958 24 39.0235C21.0302 39.0295 18.1338 38.1011 15.721 36.3698C13.3082 34.6384 11.5012 32.1918 10.556 29.3765L2.47498 35.5075C4.4565 39.5207 7.52416 42.8975 11.3293 45.2541C15.1343 47.6107 19.5243 48.8525 24 48.8385C29.7944 48.9002 35.3952 46.7551 39.666 42.8385L32.081 36.8675Z" fill="#34A853"/>
<path d="M39.666 42.8385C44.054 38.7385 46.904 32.6475 46.904 24.8385C46.8848 23.3698 46.7023 21.9078 46.36 20.4795H24V29.7515H36.872C36.6 31.2013 36.0348 32.5803 35.211 33.804C34.3871 35.0276 33.3221 36.0701 32.081 36.8675L39.666 42.8385Z" fill="#4A90E2"/>
<path d="M10.556 29.3755C10.0644 27.9134 9.81413 26.381 9.81503 24.8385C9.81444 23.3196 10.0548 21.8101 10.527 20.3665L2.47503 14.1415C0.846498 17.4673 -0.00012207 21.1214 -0.00012207 24.8245C-0.00012207 28.5276 0.846498 32.1817 2.47503 35.5075L10.556 29.3755Z" fill="#FBBC05"/>
</svg>
