<svg width="48" height="49" viewBox="0 0 48 49" fill="none" xmlns="http://www.w3.org/2000/svg">
<path fill-rule="evenodd" clip-rule="evenodd" d="M40.909 41.7385H33.797V30.6045C33.797 27.9515 33.75 24.5295 30.103 24.5295C26.403 24.5295 25.837 27.4295 25.837 30.4165V41.7385H18.721V18.8295H25.546V21.9605H25.64C26.3223 20.7925 27.3087 19.8315 28.494 19.1799C29.6794 18.5284 31.0193 18.2106 32.371 18.2605C39.58 18.2605 40.912 23.0045 40.912 29.1725V41.7385H40.909ZM10.687 15.7075C9.87007 15.709 9.07099 15.4683 8.39087 15.0157C7.71076 14.563 7.18016 13.9189 6.86619 13.1646C6.55223 12.4104 6.46901 11.58 6.62706 10.7785C6.7851 9.97696 7.17732 9.24031 7.75409 8.66172C8.33086 8.08313 9.06627 7.6886 9.8673 7.52803C10.6683 7.36745 11.499 7.44806 12.2542 7.75965C13.0094 8.07123 13.6552 8.5998 14.11 9.27849C14.5648 9.95718 14.808 10.7555 14.809 11.5725C14.8106 12.6674 14.3773 13.7181 13.6043 14.4935C12.8313 15.2689 11.7819 15.7056 10.687 15.7075ZM14.25 41.7385H7.12503V18.8295H14.25V41.7385ZM46.009 0.83846H2.00903C1.4786 0.83846 0.969892 1.04917 0.59482 1.42425C0.219747 1.79932 0.0090332 2.30803 0.0090332 2.83846L0.0090332 46.8385C0.0108781 47.3683 0.222184 47.876 0.596858 48.2506C0.971531 48.6253 1.47917 48.8366 2.00903 48.8385H46.009C46.5395 48.8385 47.0482 48.6277 47.4232 48.2527C47.7983 47.8776 48.009 47.3689 48.009 46.8385V2.83846C48.0102 2.57548 47.9593 2.31488 47.8592 2.07169C47.7591 1.8285 47.6119 1.60755 47.4259 1.42159C47.2399 1.23564 47.019 1.08836 46.7758 0.988275C46.5326 0.888187 46.272 0.837269 46.009 0.83846Z" fill="#0077B5"/>
</svg>
